<?xml version="1.0" encoding="UTF-8"?>
<svg xmlns="http://www.w3.org/2000/svg" style="stroke-dasharray:none; shape-rendering:auto; font-family:'Arial'; text-rendering:auto; fill-opacity:1; color-interpolation:auto; color-rendering:auto; font-size:12; fill:black; stroke:black; image-rendering:auto; stroke-miterlimit:10; stroke-linecap:square; stroke-linejoin:miter; font-style:normal; stroke-width:1; stroke-dashoffset:0; font-weight:normal; stroke-opacity:1;" contentScriptType="text/ecmascript" preserveAspectRatio="xMidYMid meet" zoomAndPan="magnify" version="1.0" contentStyleType="text/css" xml:xlink="http://www.w3.org/1999/xlink" width="1460" height="1269"><rect x="0" y="1050" width="1460" height="219" ry="0" rx="0" style="stroke:#000000; fill:#FFFFFF" /><g componentSequence="39"><text x="-1159" y="7" transform="rotate(270)" text-anchor="middle" style="font-weight:bold;font-size:10px;stroke:none; fill:#434343"><tspan dy="14" x="-1159">TI</tspan></text></g><rect x="0" y="694" width="1460" height="367" ry="0" rx="0" style="stroke:#000000; fill:#FFFFFF" /><g componentSequence="34"><text x="-877" y="7" transform="rotate(270)" text-anchor="middle" style="font-weight:bold;font-size:10px;stroke:none; fill:#434343"><tspan dy="14" x="-877">ADM Representantes</tspan></text></g><rect x="0" y="350" width="1460" height="351" ry="0" rx="0" style="stroke:#000000; fill:#FFFFFF" /><g componentSequence="33"><text x="-525" y="7" transform="rotate(270)" text-anchor="middle" style="font-weight:bold;font-size:10px;stroke:none; fill:#434343"><tspan dy="14" x="-525">Comercial</tspan></text></g><rect x="0" y="136" width="1460" height="216" ry="0" rx="0" style="stroke:#000000; fill:#FFFFFF" /><g componentSequence="31"><text x="-244" y="7" transform="rotate(270)" text-anchor="middle" style="font-weight:bold;font-size:10px;stroke:none; fill:#434343"><tspan dy="14" x="-244">Macro</tspan></text></g><rect x="0" y="0" width="1460" height="140" ry="0" rx="0" style="stroke:#000000; fill:#FFFFFF" /><g componentSequence="30"><text x="-70" y="7" transform="rotate(270)" text-anchor="middle" style="font-weight:bold;font-size:10px;stroke:none; fill:#434343"><tspan dy="14" x="-70">Representante</tspan></text></g><g sequence="1"><ellipse cx="77" cy="217" rx="17" ry="17" stroke-width="1" style="fill:url(#linearGradient66FF6696FF96B6FFB6_1822705992);" stroke="336633" /></g><rect x="25" y="290" width="105" height="55" ry="5" rx="5" style="stroke:none; fill:#FFFFE0" /><g componentSequence="2"><text x="35" y="313" text-anchor="left" style="font-weight:bold;font-size:10px;stroke:none; fill:#000000"><tspan dy="14" x="35">Indicar novo</tspan><tspan dy="14" x="35">representante</tspan></text></g><path style="fill:none; stroke-width:1; stroke:#000000;" d="M45.0 290.0 L25.0 290.0 L25.0 345.0 L45.0 345.0" /><rect x="120" y="220" width="105" height="83" ry="5" rx="5" style="stroke:none; fill:#FFFFE0" /><g componentSequence="4"><text x="130" y="243" text-anchor="left" style="font-weight:bold;font-size:10px;stroke:none; fill:#000000"><tspan dy="14" x="130">Consulta</tspan><tspan dy="14" x="130">informações</tspan><tspan dy="14" x="130">na receita</tspan><tspan dy="14" x="130">federal</tspan></text></g><path style="fill:none; stroke-width:1; stroke:#000000;" d="M140.0 220.0 L120.0 220.0 L120.0 303.0 L140.0 303.0" /><g sequence="6"><rect x="190" y="500" width="106" height="70" ry="5" rx="5" style="fill:url(#linearGradientF8FBFEEDF5FCDEEDFAD4E7F8E2E5E9_1650698924);" stroke="191970" /></g><g componentSequence="6"><text x="243" y="515" text-anchor="middle" style="font-weight:bold;font-size:10px;stroke:none; fill:#333399"><tspan dy="14" x="243">Avaliar</tspan><tspan dy="14" x="243">Representante</tspan></text></g><g sequence="8"><polygon points=" 380 520 410 490 440 520 410 550 380 520" style="fill:url(#linearGradientFAFBFCFFFFCC_1717314104);" stroke="000000" /></g><g componentSequence="8"><text x="410" y="560" text-anchor="middle" style="font-weight:bold;font-size:10px;stroke:none; fill:#333399"><tspan dy="14" x="410">Selecion</tspan><tspan dy="14" x="410">ado</tspan></text></g><g sequence="10"><ellipse cx="407" cy="667" rx="17" ry="17" stroke-width="3" style="fill:url(#linearGradientFF6666FF9696FFB6B6_593404055);" stroke="993333" /></g><g sequence="12"><rect x="480" y="790" width="106" height="70" ry="5" rx="5" style="fill:url(#linearGradientF8FBFEEDF5FCDEEDFAD4E7F8E2E5E9_1836991421);" stroke="191970" /></g><g componentSequence="12"><text x="533" y="805" text-anchor="middle" style="font-weight:bold;font-size:10px;stroke:none; fill:#333399"><tspan dy="14" x="533">Avalia Cadastro</tspan><tspan dy="14" x="533">e Documentos</tspan></text></g><rect x="480" y="20" width="105" height="97" ry="5" rx="5" style="stroke:none; fill:#FFFFE0" /><g componentSequence="14"><text x="490" y="43" text-anchor="left" style="font-weight:bold;font-size:10px;stroke:none; fill:#000000"><tspan dy="14" x="490">Inicia</tspan><tspan dy="14" x="490">preenchiment</tspan><tspan dy="14" x="490">o de dados e</tspan><tspan dy="14" x="490">anexo de</tspan><tspan dy="14" x="490">documentos</tspan></text></g><path style="fill:none; stroke-width:1; stroke:#000000;" d="M500.0 20.0 L480.0 20.0 L480.0 117.0 L500.0 117.0" /><rect x="570" y="400" width="105" height="83" ry="5" rx="5" style="stroke:none; fill:#FFFFE0" /><g componentSequence="17"><text x="580" y="423" text-anchor="left" style="font-weight:bold;font-size:10px;stroke:none; fill:#000000"><tspan dy="14" x="580">Notifica via e-</tspan><tspan dy="14" x="580">mail</tspan><tspan dy="14" x="580">representante</tspan><tspan dy="14" x="580">(se sim)</tspan></text></g><path style="fill:none; stroke-width:1; stroke:#000000;" d="M590.0 400.0 L570.0 400.0 L570.0 483.0 L590.0 483.0" /><rect x="310" y="771" width="105" height="111" ry="5" rx="5" style="stroke:none; fill:#FFFFE0" /><g componentSequence="19"><text x="320" y="794" text-anchor="left" style="font-weight:bold;font-size:10px;stroke:none; fill:#000000"><tspan dy="14" x="320">Se recusado,</tspan><tspan dy="14" x="320">envia e-mail ao</tspan><tspan dy="14" x="320">Macro e</tspan><tspan dy="14" x="320">reseta o</tspan><tspan dy="14" x="320">preenchiment</tspan><tspan dy="14" x="320">o</tspan></text></g><path style="fill:none; stroke-width:1; stroke:#000000;" d="M330.0 771.0 L310.0 771.0 L310.0 882.0 L330.0 882.0" /><g sequence="21"><rect x="680" y="784" width="106" height="98" ry="5" rx="5" style="fill:url(#linearGradientF8FBFEEDF5FCDEEDFAD4E7F8E2E5E9_305635956);" stroke="191970" /></g><g componentSequence="21"><text x="733" y="799" text-anchor="middle" style="font-weight:bold;font-size:10px;stroke:none; fill:#333399"><tspan dy="14" x="733">Validar Cadastro</tspan><tspan dy="14" x="733">no MD-Log e</tspan><tspan dy="14" x="733">Senior</tspan></text></g><rect x="600" y="910" width="105" height="55" ry="5" rx="5" style="stroke:none; fill:#FFFFE0" /><g componentSequence="23"><text x="610" y="933" text-anchor="left" style="font-weight:bold;font-size:10px;stroke:none; fill:#000000"><tspan dy="14" x="610">Envia cadastro</tspan><tspan dy="14" x="610">ao MD-log</tspan></text></g><path style="fill:none; stroke-width:1; stroke:#000000;" d="M620.0 910.0 L600.0 910.0 L600.0 965.0 L620.0 965.0" /><g sequence="25"><rect x="680" y="500" width="106" height="84" ry="5" rx="5" style="fill:url(#linearGradientF8FBFEEDF5FCDEEDFAD4E7F8E2E5E9_368910312);" stroke="191970" /></g><g componentSequence="25"><text x="733" y="515" text-anchor="middle" style="font-weight:bold;font-size:10px;stroke:none; fill:#333399"><tspan dy="14" x="733">Vincular Clientes</tspan><tspan dy="14" x="733">ao</tspan><tspan dy="14" x="733">Representante</tspan></text></g><rect x="600" y="640" width="105" height="111" ry="5" rx="5" style="stroke:none; fill:#FFFFE0" /><g componentSequence="36"><text x="610" y="663" text-anchor="left" style="font-weight:bold;font-size:10px;stroke:none; fill:#000000"><tspan dy="14" x="610">Notificar Macro</tspan><tspan dy="14" x="610">e</tspan><tspan dy="14" x="610">Representante</tspan><tspan dy="14" x="610">que o</tspan><tspan dy="14" x="610">cadastro foi</tspan><tspan dy="14" x="610">aprovado</tspan></text></g><path style="fill:none; stroke-width:1; stroke:#000000;" d="M620.0 640.0 L600.0 640.0 L600.0 751.0 L620.0 751.0" /><g sequence="40"><rect x="810" y="1140" width="106" height="70" ry="5" rx="5" style="fill:url(#linearGradientF8FBFEEDF5FCDEEDFAD4E7F8E2E5E9_1131503576);" stroke="191970" /></g><g componentSequence="40"><text x="863" y="1155" text-anchor="middle" style="font-weight:bold;font-size:10px;stroke:none; fill:#333399"><tspan dy="14" x="863">Lançar Dados</tspan><tspan dy="14" x="863">No Tablet</tspan></text></g><rect x="890" y="37" width="105" height="69" ry="5" rx="5" style="stroke:none; fill:#FFFFE0" /><g componentSequence="42"><text x="900" y="60" text-anchor="left" style="font-weight:bold;font-size:10px;stroke:none; fill:#000000"><tspan dy="14" x="900">Assinar</tspan><tspan dy="14" x="900">Documentos</tspan><tspan dy="14" x="900">no Vertsign</tspan></text></g><path style="fill:none; stroke-width:1; stroke:#000000;" d="M910.0 37.0 L890.0 37.0 L890.0 106.0 L910.0 106.0" /><g sequence="44"><rect x="1020" y="1130" width="106" height="84" ry="5" rx="5" style="fill:url(#linearGradientF8FBFEEDF5FCDEEDFAD4E7F8E2E5E9_1544392608);" stroke="191970" /></g><g componentSequence="44"><text x="1073" y="1145" text-anchor="middle" style="font-weight:bold;font-size:10px;stroke:none; fill:#333399"><tspan dy="14" x="1073">Enviar Tablet</tspan><tspan dy="14" x="1073">para</tspan><tspan dy="14" x="1073">Representante</tspan></text></g><g sequence="46"><rect x="1200" y="1130" width="106" height="84" ry="5" rx="5" style="fill:url(#linearGradientF8FBFEEDF5FCDEEDFAD4E7F8E2E5E9_1929818711);" stroke="191970" /></g><g componentSequence="46"><text x="1253" y="1145" text-anchor="middle" style="font-weight:bold;font-size:10px;stroke:none; fill:#333399"><tspan dy="14" x="1253">Configurar</tspan><tspan dy="14" x="1253">Acessos para</tspan><tspan dy="14" x="1253">Representante</tspan></text></g><g sequence="48"><ellipse cx="1397" cy="1171" rx="17" ry="17" stroke-width="3" style="fill:url(#linearGradientFF6666FF9696FFB6B6_251261312);" stroke="993333" /></g><rect x="1010" y="900" width="105" height="69" ry="5" rx="5" style="stroke:none; fill:#FFFFE0" /><g componentSequence="50"><text x="1020" y="923" text-anchor="left" style="font-weight:bold;font-size:10px;stroke:none; fill:#000000"><tspan dy="14" x="1020">Gera Contrato</tspan><tspan dy="14" x="1020">de Serviço e</tspan><tspan dy="14" x="1020">Comodato</tspan></text></g><path style="fill:none; stroke-width:1; stroke:#000000;" d="M1030.0 900.0 L1010.0 900.0 L1010.0 969.0 L1030.0 969.0" /><rect x="1030" y="780" width="105" height="83" ry="5" rx="5" style="stroke:none; fill:#FFFFE0" /><g componentSequence="52"><text x="1040" y="803" text-anchor="left" style="font-weight:bold;font-size:10px;stroke:none; fill:#000000"><tspan dy="14" x="1040">Enviar</tspan><tspan dy="14" x="1040">envelope para</tspan><tspan dy="14" x="1040">Assinatura no</tspan><tspan dy="14" x="1040">Vertsign</tspan></text></g><path style="fill:none; stroke-width:1; stroke:#000000;" d="M1050.0 780.0 L1030.0 780.0 L1030.0 863.0 L1050.0 863.0" /><g componentSequence="3"><text x="87" y="262" style="font-size:10px;font-weight:none;stroke:none; fill:#333399" text-anchor="left" /></g><g componentSequence="5"><text x="117" y="231" style="font-size:10px;font-weight:none;stroke:none; fill:#333399" text-anchor="left" /></g><g componentSequence="7"><text x="251" y="284" style="font-size:10px;font-weight:none;stroke:none; fill:#333399" text-anchor="left" /></g><g componentSequence="9"><text x="348" y="539" style="font-size:10px;font-weight:none;stroke:none; fill:#333399" text-anchor="left" /></g><g componentSequence="11"><text x="418" y="621" style="font-size:10px;font-weight:none;stroke:none; fill:#333399" text-anchor="left" /></g><g componentSequence="13"><text x="542" y="617" style="font-size:10px;font-weight:none;stroke:none; fill:#333399" text-anchor="left" /></g><g componentSequence="15"><text x="542" y="453" style="font-size:10px;font-weight:none;stroke:none; fill:#333399" text-anchor="left" /></g><g componentSequence="16"><text x="481" y="303" style="font-size:10px;font-weight:none;stroke:none; fill:#333399" text-anchor="left" /></g><g componentSequence="18"><text x="515" y="496" style="font-size:10px;font-weight:none;stroke:none; fill:#333399" text-anchor="left" /></g><g componentSequence="20"><text x="457" y="826" style="font-size:10px;font-weight:none;stroke:none; fill:#333399" text-anchor="left" /></g><g componentSequence="22"><text x="643" y="829" style="font-size:10px;font-weight:none;stroke:none; fill:#333399" text-anchor="left" /></g><g componentSequence="24"><text x="659" y="837" style="font-size:10px;font-weight:none;stroke:none; fill:#333399" text-anchor="left" /></g><g componentSequence="26"><text x="743" y="684" style="font-size:10px;font-weight:none;stroke:none; fill:#333399" text-anchor="left" /></g><g componentSequence="35"><text x="542" y="626" style="font-size:10px;font-weight:none;stroke:none; fill:#333399" text-anchor="left" /></g><g componentSequence="37"><text x="742" y="654" style="font-size:10px;font-weight:none;stroke:none; fill:#333399" text-anchor="left" /></g><g componentSequence="41"><text x="871" y="802" style="font-size:10px;font-weight:none;stroke:none; fill:#333399" text-anchor="left" /></g><g componentSequence="43"><text x="962" y="661" style="font-size:10px;font-weight:none;stroke:none; fill:#333399" text-anchor="left" /></g><g componentSequence="45"><text x="978" y="1173" style="font-size:10px;font-weight:none;stroke:none; fill:#333399" text-anchor="left" /></g><g componentSequence="47"><text x="1173" y="1172" style="font-size:10px;font-weight:none;stroke:none; fill:#333399" text-anchor="left" /></g><g componentSequence="49"><text x="1353" y="1171" style="font-size:10px;font-weight:none;stroke:none; fill:#333399" text-anchor="left" /></g><g componentSequence="51"><text x="971" y="1052" style="font-size:10px;font-weight:none;stroke:none; fill:#333399" text-anchor="left" /></g><g componentSequence="53"><text x="974" y="989" style="font-size:10px;font-weight:none;stroke:none; fill:#333399" text-anchor="left" /></g><path style="fill:none; stroke:#000000;stroke-width:1" d="M94.0 217.0 L241.0 216.0 L241.0 498.0" /><polygon style="fill:#000000; stroke:#000000;" points=" 246 488 241 498 236 488 241 490" /><path style="fill:none; stroke:#000000;stroke-dasharray:2" d="M77.0 288.0 L77.0 234.0" /><path style="fill:none; stroke:#000000;stroke-dasharray:2" d="M118.0 236.0 L93.0 224.0" /><path style="fill:none; stroke:#000000;stroke-width:1" d="M296.0 536.0 L378.0 538.0" /><polygon style="fill:#000000; stroke:#000000;" points=" 368 533 378 538 368 543 370 538" /><path style="fill:none; stroke:#000000;stroke-width:1" d="M408.0 592.0 L406.0 649.0" /><polygon style="fill:#000000; stroke:#000000;" points=" 411 639 406 649 401 639 406 641" /><path style="fill:none; stroke:#000000;stroke-width:1" d="M440.0 538.0 L532.0 537.0 L532.0 788.0" /><polygon style="fill:#000000; stroke:#000000;" points=" 537 778 532 788 527 778 532 780" /><path style="fill:none; stroke:#000000;stroke-dasharray:2" d="M518.0 117.0 L422.0 488.0" /><path style="fill:none; stroke:#000000;stroke-dasharray:2" d="M568.0 466.0 L440.0 525.0" /><path style="fill:none; stroke:#000000;stroke-width:1" d="M586.0 826.0 L678.0 830.0" /><polygon style="fill:#000000; stroke:#000000;" points=" 668 825 678 830 668 835 670 830" /><path style="fill:none; stroke:#000000;stroke-dasharray:2" d="M532.0 117.0 L532.0 338.0 L532.0 530.0 L532.0 788.0" /><path style="fill:none; stroke:#000000;stroke-dasharray:2" d="M416.0 825.0 L478.0 824.0" /><path style="fill:none; stroke:#000000;stroke-dasharray:2" d="M650.0 908.0 L649.0 828.0 L586.0 825.0" /><path style="fill:none; stroke:#000000;stroke-dasharray:2" d="M585.0 484.0 L532.0 546.0 L532.0 788.0" /><path style="fill:none; stroke:#000000;stroke-width:1" d="M732.0 782.0 L732.0 584.0" /><polygon style="fill:#000000; stroke:#000000;" points=" 727 594 732 584 737 594 732 592" /><path style="fill:none; stroke:#000000;stroke-width:1" d="M786.0 541.0 L861.0 540.0 L861.0 1138.0" /><polygon style="fill:#000000; stroke:#000000;" points=" 866 1128 861 1138 856 1128 861 1130" /><path style="fill:none; stroke:#000000;stroke-dasharray:2" d="M705.0 696.0 L732.0 697.0 L732.0 584.0" /><path style="fill:none; stroke:#000000;stroke-width:1" d="M916.0 1173.0 L1018.0 1172.0" /><polygon style="fill:#000000; stroke:#000000;" points=" 1008 1167 1018 1172 1008 1177 1010 1172" /><path style="fill:none; stroke:#000000;stroke-dasharray:2" d="M942.0 106.0 L960.0 1172.0 L916.0 1173.0" /><path style="fill:none; stroke:#000000;stroke-dasharray:2" d="M1008.0 933.0 L961.0 933.0 L962.0 1172.0 L916.0 1173.0" /><path style="fill:none; stroke:#000000;stroke-dasharray:2" d="M1028.0 822.0 L964.0 825.0 L965.0 1169.0 L916.0 1170.0" /><path style="fill:none; stroke:#000000;stroke-width:1" d="M1126.0 1172.0 L1198.0 1172.0" /><polygon style="fill:#000000; stroke:#000000;" points=" 1188 1167 1198 1172 1188 1177 1190 1172" /><path style="fill:none; stroke:#000000;stroke-width:1" d="M1306.0 1170.0 L1380.0 1170.0" /><polygon style="fill:#000000; stroke:#000000;" points=" 1370 1165 1380 1170 1370 1175 1372 1170" /><defs><linearGradient xmlns:xlink="http://www.w3.org/1999/xlink" xlink:href="#linearGradient66FF6696FF96B6FFB6" id="linearGradient66FF6696FF96B6FFB6_1822705992" x1="0" y1="200.0" x2="0" y2="235.0" gradientUnits="userSpaceOnUse" xlink:type="simple" xlink:actuate="onLoad" xlink:show="other" /><linearGradient id="linearGradient66FF6696FF96B6FFB6"><stop style="stop-color:#66FF66;stop-opacity:1;" offset="0.0" id="stop66FF66" /><stop style="stop-color:#96FF96;stop-opacity:1;" offset="0.5" id="stop96FF96" /><stop style="stop-color:#B6FFB6;stop-opacity:1;" offset="1.0" id="stopB6FFB6" /></linearGradient><linearGradient xmlns:xlink="http://www.w3.org/1999/xlink" xlink:href="#linearGradientF8FBFEEDF5FCDEEDFAD4E7F8E2E5E9" id="linearGradientF8FBFEEDF5FCDEEDFAD4E7F8E2E5E9_1650698924" x1="0" y1="500.0" x2="0" y2="606.0" gradientUnits="userSpaceOnUse" xlink:type="simple" xlink:actuate="onLoad" xlink:show="other" /><linearGradient id="linearGradientF8FBFEEDF5FCDEEDFAD4E7F8E2E5E9"><stop style="stop-color:#F8FBFE;stop-opacity:1;" offset="0.0" id="stopF8FBFE" /><stop style="stop-color:#EDF5FC;stop-opacity:1;" offset="0.25" id="stopEDF5FC" /><stop style="stop-color:#DEEDFA;stop-opacity:1;" offset="0.5" id="stopDEEDFA" /><stop style="stop-color:#D4E7F8;stop-opacity:1;" offset="0.75" id="stopD4E7F8" /><stop style="stop-color:#E2E5E9;stop-opacity:1;" offset="1.0" id="stopE2E5E9" /></linearGradient><linearGradient xmlns:xlink="http://www.w3.org/1999/xlink" xlink:href="#linearGradientFAFBFCFFFFCC" id="linearGradientFAFBFCFFFFCC_1717314104" x1="0" y1="490.0" x2="0" y2="550.0" gradientUnits="userSpaceOnUse" xlink:type="simple" xlink:actuate="onLoad" xlink:show="other" /><linearGradient id="linearGradientFAFBFCFFFFCC"><stop style="stop-color:#FAFBFC;stop-opacity:1;" offset="0.0" id="stopFAFBFC" /><stop style="stop-color:#FFFFCC;stop-opacity:1;" offset="1.0" id="stopFFFFCC" /></linearGradient><linearGradient xmlns:xlink="http://www.w3.org/1999/xlink" xlink:href="#linearGradientFF6666FF9696FFB6B6" id="linearGradientFF6666FF9696FFB6B6_593404055" x1="0" y1="650.0" x2="0" y2="685.0" gradientUnits="userSpaceOnUse" xlink:type="simple" xlink:actuate="onLoad" xlink:show="other" /><linearGradient id="linearGradientFF6666FF9696FFB6B6"><stop style="stop-color:#FF6666;stop-opacity:1;" offset="0.0" id="stopFF6666" /><stop style="stop-color:#FF9696;stop-opacity:1;" offset="0.5" id="stopFF9696" /><stop style="stop-color:#FFB6B6;stop-opacity:1;" offset="1.0" id="stopFFB6B6" /></linearGradient><linearGradient xmlns:xlink="http://www.w3.org/1999/xlink" xlink:href="#linearGradientF8FBFEEDF5FCDEEDFAD4E7F8E2E5E9" id="linearGradientF8FBFEEDF5FCDEEDFAD4E7F8E2E5E9_1836991421" x1="0" y1="790.0" x2="0" y2="896.0" gradientUnits="userSpaceOnUse" xlink:type="simple" xlink:actuate="onLoad" xlink:show="other" /><linearGradient xmlns:xlink="http://www.w3.org/1999/xlink" xlink:href="#linearGradientF8FBFEEDF5FCDEEDFAD4E7F8E2E5E9" id="linearGradientF8FBFEEDF5FCDEEDFAD4E7F8E2E5E9_305635956" x1="0" y1="784.0" x2="0" y2="890.0" gradientUnits="userSpaceOnUse" xlink:type="simple" xlink:actuate="onLoad" xlink:show="other" /><linearGradient xmlns:xlink="http://www.w3.org/1999/xlink" xlink:href="#linearGradientF8FBFEEDF5FCDEEDFAD4E7F8E2E5E9" id="linearGradientF8FBFEEDF5FCDEEDFAD4E7F8E2E5E9_368910312" x1="0" y1="500.0" x2="0" y2="606.0" gradientUnits="userSpaceOnUse" xlink:type="simple" xlink:actuate="onLoad" xlink:show="other" /><linearGradient xmlns:xlink="http://www.w3.org/1999/xlink" xlink:href="#linearGradientF8FBFEEDF5FCDEEDFAD4E7F8E2E5E9" id="linearGradientF8FBFEEDF5FCDEEDFAD4E7F8E2E5E9_1131503576" x1="0" y1="1140.0" x2="0" y2="1246.0" gradientUnits="userSpaceOnUse" xlink:type="simple" xlink:actuate="onLoad" xlink:show="other" /><linearGradient xmlns:xlink="http://www.w3.org/1999/xlink" xlink:href="#linearGradientF8FBFEEDF5FCDEEDFAD4E7F8E2E5E9" id="linearGradientF8FBFEEDF5FCDEEDFAD4E7F8E2E5E9_1544392608" x1="0" y1="1130.0" x2="0" y2="1236.0" gradientUnits="userSpaceOnUse" xlink:type="simple" xlink:actuate="onLoad" xlink:show="other" /><linearGradient xmlns:xlink="http://www.w3.org/1999/xlink" xlink:href="#linearGradientF8FBFEEDF5FCDEEDFAD4E7F8E2E5E9" id="linearGradientF8FBFEEDF5FCDEEDFAD4E7F8E2E5E9_1929818711" x1="0" y1="1130.0" x2="0" y2="1236.0" gradientUnits="userSpaceOnUse" xlink:type="simple" xlink:actuate="onLoad" xlink:show="other" /><linearGradient xmlns:xlink="http://www.w3.org/1999/xlink" xlink:href="#linearGradientFF6666FF9696FFB6B6" id="linearGradientFF6666FF9696FFB6B6_251261312" x1="0" y1="1154.0" x2="0" y2="1189.0" gradientUnits="userSpaceOnUse" xlink:type="simple" xlink:actuate="onLoad" xlink:show="other" /></defs></svg>
